<svg width="20" height="20" viewBox="0 0 20 20" fill="none" xmlns="http://www.w3.org/2000/svg">
<path d="M6.25 11.2501C8.33333 13.3334 11.6667 13.3334 13.75 11.2501M14.835 14.41C14.835 14.41 14.8991 14.3642 15.0016 14.2859C16.5375 13.0984 17.5016 11.3775 17.5016 9.4617C17.5016 5.89003 14.1433 2.9917 10.0016 2.9917C5.85996 2.9917 2.50163 5.89003 2.50163 9.4617C2.50163 13.035 5.85996 15.8334 10.0016 15.8334C10.355 15.8334 10.935 15.81 11.7416 15.7634C12.7933 16.4467 14.3283 17.0075 15.6716 17.0075C16.0875 17.0075 16.2833 16.6659 16.0166 16.3175C15.6116 15.8209 15.0533 15.025 14.8366 14.4092L14.835 14.41Z" stroke="white" stroke-width="1.5" stroke-linecap="round" stroke-linejoin="round"/>
</svg>
