<svg width="20" height="20" viewBox="0 0 20 20" fill="none" xmlns="http://www.w3.org/2000/svg">
<path d="M3.33333 12.5H16.6667M3.33333 16.6667H13.3333M3.33333 4.16671C3.33333 3.94569 3.42113 3.73373 3.57741 3.57745C3.73369 3.42117 3.94565 3.33337 4.16667 3.33337H7.5C7.72101 3.33337 7.93297 3.42117 8.08925 3.57745C8.24553 3.73373 8.33333 3.94569 8.33333 4.16671V7.50004C8.33333 7.72105 8.24553 7.93302 8.08925 8.0893C7.93297 8.24558 7.72101 8.33337 7.5 8.33337H4.16667C3.94565 8.33337 3.73369 8.24558 3.57741 8.0893C3.42113 7.93302 3.33333 7.72105 3.33333 7.50004V4.16671Z" stroke="white" stroke-opacity="0.7" stroke-width="1.5" stroke-linecap="round" stroke-linejoin="round"/>
</svg>
