<svg width="20" height="20" viewBox="0 0 20 20" fill="none" xmlns="http://www.w3.org/2000/svg">
<path d="M11.6667 7.61111H11.6739M3 13.3889L6.61111 9.77774C7.28133 9.1328 8.10756 9.1328 8.77778 9.77774L12.3889 13.3889M10.9444 11.9444L11.6667 11.2222C12.3369 10.5772 13.1631 10.5772 13.8333 11.2222L16 13.3889M3 6.16667C3 5.59203 3.22827 5.04093 3.6346 4.6346C4.04093 4.22827 4.59203 4 5.16667 4H13.8333C14.408 4 14.9591 4.22827 15.3654 4.6346C15.7717 5.04093 16 5.59203 16 6.16667V14.8333C16 15.408 15.7717 15.9591 15.3654 16.3654C14.9591 16.7717 14.408 17 13.8333 17H5.16667C4.59203 17 4.04093 16.7717 3.6346 16.3654C3.22827 15.9591 3 15.408 3 14.8333V6.16667Z" stroke="white" stroke-opacity="0.6" stroke-width="1.5" stroke-linecap="round" stroke-linejoin="round"/>
</svg>
